<svg width="700" height="463" viewBox="0 0 700 463" fill="none" xmlns="http://www.w3.org/2000/svg">
    <g clip-path="url(#clip0)">
    <path d="M511.768 462.701C492.414 459.671 473.805 457.094 455.941 454.969L462.82 441.211C460.432 440.415 450.085 448.375 450.085 448.375L458.84 408.579C446.902 410.171 441.33 450.762 441.33 450.762L427.8 437.232L434.46 452.551C379.796 446.807 332.627 445.014 292.975 445.426L298.863 433.65C296.475 432.854 286.128 440.813 286.128 440.813L294.883 401.018C282.945 402.61 277.374 443.201 277.374 443.201L263.843 429.671L270.898 445.896C243.737 446.685 216.634 448.868 189.697 452.435C195.572 434.133 216.089 416.538 216.089 416.538C200.313 421.446 192.106 429.442 187.858 436.853C186.999 399.252 192.784 361.794 204.946 326.203C204.946 326.203 173.11 397.834 177.885 445.589L178.491 454.072C150.794 458.393 136.896 462.701 136.896 462.701H511.768Z" fill="#3F3D56"/>
    <path d="M584.731 364.116C582.842 364.116 580.995 363.556 579.424 362.507C577.854 361.457 576.63 359.966 575.907 358.221C575.184 356.475 574.995 354.555 575.363 352.702C575.732 350.85 576.641 349.148 577.977 347.812C579.313 346.476 581.015 345.567 582.867 345.198C584.72 344.83 586.64 345.019 588.386 345.742C590.131 346.465 591.622 347.689 592.672 349.259C593.721 350.83 594.282 352.677 594.282 354.566C594.279 357.098 593.271 359.525 591.481 361.316C589.69 363.106 587.263 364.114 584.731 364.116V364.116ZM584.731 346.606C583.157 346.606 581.618 347.073 580.309 347.948C579 348.822 577.98 350.065 577.377 351.52C576.775 352.974 576.617 354.574 576.925 356.118C577.232 357.662 577.99 359.08 579.103 360.193C580.216 361.307 581.634 362.065 583.178 362.372C584.722 362.679 586.322 362.521 587.776 361.919C589.231 361.316 590.474 360.296 591.348 358.987C592.223 357.679 592.69 356.14 592.69 354.566C592.687 352.455 591.848 350.432 590.356 348.94C588.864 347.448 586.841 346.609 584.731 346.606V346.606Z" fill="#3F3D56"/>
    <path d="M661.001 461.448H645.288V445.736H661.001V461.448ZM646.497 460.239H659.792V446.944H646.497V460.239Z" fill="#3F3D56"/>
    <path d="M129.051 462.307L118.334 450.818L129.824 440.101L140.541 451.59L129.051 462.307ZM120.043 450.877L129.111 460.599L138.833 451.531L129.765 441.809L120.043 450.877Z" fill="#3F3D56"/>
    <path d="M700 460.561H17.2492V462.152H700V460.561Z" fill="#3F3D56"/>
    <path d="M440.514 106.46V158.736C440.513 159.219 440.321 159.681 439.979 160.023C439.638 160.365 439.175 160.557 438.692 160.558H437.395V432.878C437.394 440.414 434.4 447.64 429.072 452.969C423.743 458.298 416.516 461.291 408.981 461.292H238.824C235.093 461.291 231.399 460.556 227.952 459.128C224.505 457.7 221.374 455.607 218.736 452.968C216.098 450.33 214.006 447.197 212.579 443.75C211.151 440.303 210.417 436.609 210.418 432.878V170.109H209.479C209.138 170.11 208.811 169.975 208.569 169.735C208.328 169.495 208.191 169.168 208.189 168.828V139.077C208.189 138.907 208.223 138.74 208.287 138.583C208.352 138.427 208.447 138.285 208.567 138.165C208.687 138.045 208.829 137.95 208.985 137.885C209.142 137.821 209.309 137.787 209.479 137.787H210.418V126.581H209.471C209.113 126.58 208.77 126.436 208.518 126.183C208.266 125.929 208.125 125.586 208.126 125.228V95.8829C208.127 95.5265 208.269 95.1849 208.521 94.9328C208.773 94.6808 209.114 94.5387 209.471 94.5378H210.418V79.2405H209.455C209.298 79.2407 209.143 79.21 208.998 79.15C208.853 79.0901 208.721 79.0022 208.61 78.8913C208.499 78.7804 208.411 78.6487 208.351 78.5038C208.291 78.3588 208.261 78.2035 208.261 78.0466V62.033C208.26 61.7154 208.386 61.4105 208.609 61.1852C208.833 60.9599 209.137 60.8326 209.455 60.8312H210.418V28.4059C210.418 20.8723 213.411 13.6473 218.738 8.32021C224.065 2.99313 231.29 0.000289654 238.824 1.52591e-05H408.981C416.515 -1.87992e-05 423.741 2.99247 429.07 8.31939C434.398 13.6463 437.392 20.8715 437.395 28.4059V104.638H438.692C439.175 104.639 439.638 104.832 439.979 105.173C440.321 105.515 440.513 105.977 440.514 106.46V106.46Z" fill="#3F3D56"/>
    <path d="M332.1 14.5705H304.451C303.333 14.5705 302.428 15.4763 302.428 16.5936V18.9834C302.428 20.1008 303.333 21.0065 304.451 21.0065H332.1C333.218 21.0065 334.123 20.1008 334.123 18.9834V16.5936C334.123 15.4763 333.218 14.5705 332.1 14.5705Z" fill="#E6E8EC"/>
    <path d="M342.566 21.4391C344.582 21.4391 346.217 19.8047 346.217 17.7885C346.217 15.7724 344.582 14.138 342.566 14.138C340.55 14.138 338.916 15.7724 338.916 17.7885C338.916 19.8047 340.55 21.4391 342.566 21.4391Z" fill="#E6E8EC"/>
    <path d="M423.789 34.0254V435.234C423.791 437.843 423.226 440.421 422.132 442.789C421.038 445.157 419.441 447.259 417.453 448.948C414.192 451.727 410.047 453.254 405.761 453.253H242.879C239.981 453.258 237.125 452.562 234.554 451.224C233.95 450.915 233.365 450.569 232.803 450.189C230.355 448.538 228.349 446.31 226.963 443.703C225.577 441.095 224.852 438.187 224.852 435.234V34.0254C224.852 31.658 225.318 29.3138 226.224 27.1266C227.13 24.9393 228.457 22.952 230.131 21.278C231.805 19.604 233.793 18.2761 235.98 17.3702C238.167 16.4642 240.512 15.998 242.879 15.9981H267.258V19.126C267.258 23.0628 268.821 26.8383 271.605 29.6221C274.389 32.4058 278.164 33.9697 282.101 33.9697H364.939C368.876 33.9697 372.652 32.4058 375.435 29.6221C378.219 26.8384 379.783 23.0628 379.783 19.126V15.9981H405.761C408.129 15.9974 410.473 16.4631 412.661 17.3688C414.848 18.2745 416.836 19.6023 418.51 21.2765C420.184 22.9506 421.512 24.9382 422.418 27.1258C423.324 29.3133 423.789 31.6578 423.789 34.0254Z" fill="#8B5CD6"/>
    <path opacity="0.3" d="M423.789 377.801V435.234C423.791 437.843 423.226 440.421 422.132 442.789C421.038 445.157 419.441 447.259 417.453 448.948C414.192 451.727 410.047 453.254 405.761 453.253H242.879C239.981 453.258 237.125 452.562 234.554 451.224C233.95 450.915 233.365 450.569 232.803 450.189C230.355 448.537 228.349 446.31 226.963 443.703C225.577 441.095 224.852 438.187 224.852 435.234V377.825C252.164 353.274 287.59 339.69 324.316 339.686C361.041 339.681 396.47 353.257 423.789 377.801Z" fill="white"/>
    <path opacity="0.3" d="M414.102 451.208C411.53 452.559 408.667 453.261 405.761 453.253H242.879C239.981 453.258 237.125 452.562 234.554 451.224C241.928 433.49 254.389 418.336 270.365 407.676C286.341 397.016 305.116 391.326 324.323 391.324C343.529 391.322 362.306 397.009 378.284 407.666C394.262 418.324 406.725 433.475 414.102 451.208V451.208Z" fill="white"/>
    <path opacity="0.3" d="M378.653 452.171C377.096 452.988 375.363 453.413 373.605 453.408H275.041C273.287 453.411 271.559 452.99 270.003 452.18C274.466 441.449 282.006 432.279 291.674 425.828C301.341 419.378 312.703 415.934 324.325 415.933C335.947 415.932 347.309 419.373 356.978 425.823C366.647 432.272 374.189 441.44 378.653 452.171V452.171Z" fill="white"/>
    <path d="M365.756 171.319C349.417 171.319 331.485 168.208 317.487 157.709C297.998 143.092 273.985 143.872 257.274 147.101C246.174 149.264 235.4 152.853 225.219 157.778L224.483 156.367C234.788 151.377 245.694 147.74 256.931 145.546C273.97 142.248 298.474 141.46 318.442 156.436C355.85 184.491 422.832 159.294 423.503 159.037L424.074 160.523C411.513 165 398.522 168.163 385.308 169.96C378.828 170.844 372.296 171.298 365.756 171.319Z" fill="white"/>
    <path opacity="0.3" d="M224.844 157.073C224.844 157.073 279.761 143.771 317.965 161.983C356.168 180.195 423.82 161.848 423.82 161.848" fill="white"/>
    <path opacity="0.3" d="M276.69 177.735C270.056 177.705 263.44 177.045 256.931 175.762C245.694 173.568 234.788 169.931 224.483 164.942L225.219 163.53C235.4 168.456 246.174 172.044 257.274 174.207C273.985 177.436 297.997 178.216 317.487 163.599C337.438 148.636 365.383 148.678 385.308 151.349C398.522 153.146 411.513 156.308 424.074 160.786L423.503 162.272C422.831 162.014 355.85 136.816 318.442 164.872C305.348 174.693 290.302 177.735 276.69 177.735Z" fill="white"/>
    <path opacity="0.3" d="M276.96 171.326C249.395 171.326 224.916 161.437 224.548 161.285L225.155 159.813C225.699 160.038 280.143 182.019 317.559 159.865C355.623 137.325 423.34 157.444 424.019 157.65L423.558 159.174C422.885 158.97 355.832 139.052 318.37 161.234C305.586 168.804 290.879 171.326 276.96 171.326Z" fill="white"/>
    <path opacity="0.3" d="M224.852 159.325C224.852 159.325 279.761 177.537 317.965 159.325C356.168 141.113 423.789 157.604 423.789 157.604" fill="white"/>
    <path d="M437.963 208.05V231.253C437.963 231.253 439.819 257.24 450.028 270.234C450.028 270.234 466.735 293.901 469.055 288.796L466.197 271.99L456.525 262.809L451.421 234.037L450.028 208.05H437.963Z" fill="#FFB8B8"/>
    <path d="M540.519 417.804V434.974L526.598 440.079V420.124L540.519 417.804Z" fill="#FFB8B8"/>
    <path d="M512.212 415.948L521.493 436.83L508.5 442.399L505.715 421.981L512.212 415.948Z" fill="#FFB8B8"/>
    <path d="M535.415 255.848C535.415 255.848 553.977 423.373 547.017 423.837C540.056 424.301 526.598 433.118 526.598 427.085C526.598 421.053 515.925 342.627 515.925 342.627L505.715 302.254V357.941L516.389 421.053C516.389 421.053 506.179 434.51 498.754 426.621L482.977 364.902C482.977 364.902 462.094 271.162 463.022 263.737C463.022 263.737 510.82 222.9 535.415 255.848Z" fill="#2F2E41"/>
    <path d="M531.703 435.903C531.703 435.903 535.415 428.013 543.768 433.118L550.729 441.471C550.729 441.471 568.675 456.334 555.941 459.517C542.815 462.799 534.951 459.308 534.951 459.308C534.951 459.308 532.631 457.916 530.775 457.916C528.918 457.916 524.742 454.667 524.742 453.739C524.742 452.811 526.134 436.367 526.134 436.367C526.66 436.11 527.25 436.018 527.829 436.1C528.408 436.183 528.949 436.438 529.382 436.831C530.775 438.223 531.703 435.903 531.703 435.903Z" fill="#2F2E41"/>
    <path d="M504.323 433.118C504.323 433.118 513.14 426.157 517.317 434.046C517.317 434.046 519.947 434.974 520.256 434.046C520.565 433.118 522.886 432.654 522.886 437.759C522.886 442.863 525.406 455.595 523.085 456.059C520.765 456.523 518.445 457.915 518.909 459.772C519.373 461.628 516.389 461.89 505.715 461.426C495.042 460.962 494.578 456.785 494.578 456.785C494.578 456.785 494.578 450.752 497.362 447.504C500.147 444.256 504.323 433.118 504.323 433.118Z" fill="#2F2E41"/>
    <path d="M487.153 129.16C487.153 129.16 484.833 146.33 499.683 152.363C514.533 158.396 466.734 178.35 462.094 166.749C457.453 155.147 463.022 151.435 463.022 151.435C463.022 151.435 467.663 146.794 463.486 134.265L487.153 129.16Z" fill="#FFB8B8"/>
    <path d="M472.303 141.226C483.58 141.226 492.722 132.084 492.722 120.807C492.722 109.53 483.58 100.389 472.303 100.389C461.026 100.389 451.885 109.53 451.885 120.807C451.885 132.084 461.026 141.226 472.303 141.226Z" fill="#FFB8B8"/>
    <path d="M495.97 157.932C495.97 157.932 482.048 165.357 468.591 159.788C455.133 154.219 455.597 178.35 455.597 178.35L462.558 196.449L510.82 191.808L507.572 163.964L495.97 157.932Z" fill="#F2F2F2"/>
    <path d="M489.053 142.053C491.525 142.578 493.848 143.651 495.848 145.195C497.849 146.739 499.477 148.713 500.611 150.971L522.886 157.932L528.454 165.821L521.957 222.9C521.957 222.9 534.023 234.501 534.023 240.998C534.023 247.495 548.873 269.77 541.448 266.985C534.023 264.201 520.565 254.456 520.565 254.456C520.565 254.456 486.689 255.848 476.016 265.129C465.342 274.41 461.166 271.626 461.166 271.626C461.166 271.626 450.028 223.364 449.564 215.939C449.1 208.514 436.107 163.964 436.107 163.964L459.31 150.971L465.22 144.265L481.584 170.461L496.434 152.363C496.434 152.363 489.098 146.593 489.053 142.053Z" fill="#3F3D56"/>
    <path d="M535.415 201.553L538.199 216.403C538.199 216.403 550.729 262.809 548.873 278.587C548.873 278.587 550.265 313.855 542.376 309.679C534.487 305.502 538.663 279.979 538.663 279.979L527.526 234.037L521.493 207.122L535.415 201.553Z" fill="#FFB8B8"/>
    <path d="M523.814 163.036L528.454 165.821C528.454 165.821 546.088 202.481 541.912 205.266C537.735 208.05 519.637 214.083 519.637 214.083L523.814 163.036Z" fill="#3F3D56"/>
    <path d="M447.244 163.965L436.338 163.732L433.787 168.141L437.035 213.155L453.741 216.867L447.244 163.965Z" fill="#3F3D56"/>
    <path d="M488.93 103.538L492.611 102.2C492.611 102.2 484.915 94.5047 474.209 95.1739L477.22 92.1627C477.22 92.1627 469.86 89.4861 463.168 96.5122C459.65 100.206 455.581 104.547 453.043 109.438H449.102L450.747 112.728L444.99 116.018L450.899 115.427C450.339 118.267 450.532 121.204 451.458 123.947L452.796 127.628C452.796 127.628 458.149 116.921 458.149 115.583V118.929C458.149 118.929 461.83 115.918 461.83 113.91L463.837 116.252L464.841 112.572L477.22 116.252L475.213 113.241L482.908 114.245L479.897 110.564C479.897 110.564 488.596 114.914 488.93 118.594C489.265 122.274 491.562 127.072 491.562 127.072L494.346 123.823C494.346 123.823 498.633 108.557 488.93 103.538Z" fill="#2F2E41"/>
    <path d="M489.473 125.216C490.37 125.216 491.098 123.346 491.098 121.039C491.098 118.732 490.37 116.863 489.473 116.863C488.576 116.863 487.849 118.732 487.849 121.039C487.849 123.346 488.576 125.216 489.473 125.216Z" fill="#FFB8B8"/>
    <path d="M33.1368 435.374C43.0287 453.719 64.0227 461.594 64.0227 461.594C64.0227 461.594 68.9789 439.726 59.0871 421.381C49.1952 403.036 28.2011 395.161 28.2011 395.161C28.2011 395.161 23.2449 417.029 33.1368 435.374Z" fill="#3F3D56"/>
    <path d="M39.9358 429.339C57.7947 440.083 64.6727 461.425 64.6727 461.425C64.6727 461.425 42.5958 465.346 24.7369 454.602C6.87802 443.857 0 422.515 0 422.515C0 422.515 22.0769 418.594 39.9358 429.339Z" fill="#8B5CD6"/>
    <path opacity="0.3" d="M224.852 157.073C224.852 157.073 279.761 128.42 317.965 157.073C356.168 185.725 423.789 159.78 423.789 159.78" fill="white"/>
    <path d="M324.531 448.633C329.366 448.633 333.286 444.713 333.286 439.878C333.286 435.043 329.366 431.123 324.531 431.123C319.696 431.123 315.776 435.043 315.776 439.878C315.776 444.713 319.696 448.633 324.531 448.633Z" fill="white"/>
    </g>
    <defs>
    <clipPath id="clip0">
    <rect width="700" height="462.701" fill="white"/>
    </clipPath>
    </defs>
    </svg>
